<svg width="25" height="25" viewBox="0 0 25 25" fill="none" xmlns="http://www.w3.org/2000/svg">
<path d="M19.4367 2.24922C19.652 2.02163 19.9107 1.8395 20.1976 1.71361C20.4844 1.58771 20.7936 1.5206 21.1069 1.51625C21.4201 1.51189 21.731 1.57038 22.0213 1.68825C22.3115 1.80611 22.5752 1.98097 22.7967 2.20249C23.0182 2.42401 23.1931 2.68768 23.311 2.97793C23.4288 3.26819 23.4873 3.57912 23.483 3.89236C23.4786 4.2056 23.4115 4.51479 23.2856 4.80165C23.1597 5.08852 22.9776 5.34723 22.75 5.5625L15.8828 12.4297C15.8737 12.4388 15.8665 12.4495 15.8616 12.4614C15.8567 12.4733 15.8541 12.486 15.8541 12.4988C15.8541 12.5117 15.8567 12.5244 15.8616 12.5363C15.8665 12.5481 15.8737 12.5589 15.8828 12.568L22.75 19.4352C22.9706 19.6521 23.146 19.9106 23.2662 20.1957C23.3864 20.4808 23.4489 20.7869 23.4502 21.0963C23.4515 21.4056 23.3915 21.7122 23.2737 21.9983C23.1559 22.2844 22.9827 22.5444 22.7639 22.7632C22.5452 22.982 22.2853 23.1553 21.9992 23.2731C21.7132 23.391 21.4066 23.451 21.0972 23.4498C20.7878 23.4486 20.4817 23.3861 20.1966 23.266C19.9115 23.1459 19.6529 22.9705 19.4359 22.75L12.5687 15.8828C12.5597 15.8737 12.5489 15.8665 12.537 15.8616C12.5252 15.8567 12.5125 15.8541 12.4996 15.8541C12.4868 15.8541 12.474 15.8567 12.4622 15.8616C12.4503 15.8665 12.4395 15.8737 12.4305 15.8828L5.56328 22.75C5.34632 22.9706 5.08784 23.146 4.80274 23.2662C4.51764 23.3864 4.21157 23.4489 3.90218 23.4502C3.59279 23.4515 3.28621 23.3915 3.00012 23.2737C2.71402 23.156 2.45408 22.9827 2.23528 22.7639C2.01648 22.5452 1.84316 22.2853 1.72531 21.9992C1.60745 21.7132 1.54741 21.4066 1.54863 21.0972C1.54986 20.7878 1.61232 20.4817 1.73243 20.1966C1.85254 19.9115 2.02791 19.6529 2.24844 19.4359L9.11562 12.5687C9.12472 12.5597 9.13193 12.5489 9.13686 12.537C9.14178 12.5252 9.14431 12.5125 9.14431 12.4996C9.14431 12.4868 9.14178 12.474 9.13686 12.4622C9.13193 12.4503 9.12472 12.4395 9.11562 12.4305L2.24844 5.56328C1.81476 5.12258 1.57279 4.52837 1.57523 3.91008C1.57768 3.29179 1.82434 2.69952 2.26149 2.26226C2.69864 1.82501 3.29086 1.57821 3.90915 1.57562C4.52743 1.57303 5.1217 1.81486 5.5625 2.24844L12.4297 9.11562C12.4388 9.12472 12.4495 9.13193 12.4614 9.13686C12.4733 9.14178 12.486 9.14431 12.4988 9.14431C12.5117 9.14431 12.5244 9.14178 12.5363 9.13686C12.5481 9.13193 12.5589 9.12472 12.568 9.11562L19.4352 2.24844L19.4367 2.24922Z" fill="black"/>
</svg>
